<?xml version="1.0" encoding="UTF-8"?>
<svg width="143px" height="171px" viewBox="0 0 143 171" version="1.1" xmlns="http://www.w3.org/2000/svg" xmlns:xlink="http://www.w3.org/1999/xlink">
    <!-- Generator: Sketch 53.2 (72643) - https://sketchapp.com -->
    <title>Group 2</title>
    <desc>Created with Sketch.</desc>
    <defs>
        <filter x="-9.0%" y="-7.5%" width="118.0%" height="115.1%" filterUnits="objectBoundingBox" id="filter-1">
            <feOffset dx="0" dy="2" in="SourceAlpha" result="shadowOffsetOuter1"></feOffset>
            <feGaussianBlur stdDeviation="2" in="shadowOffsetOuter1" result="shadowBlurOuter1"></feGaussianBlur>
            <feColorMatrix values="0 0 0 0 0   0 0 0 0 0   0 0 0 0 0  0 0 0 0.5 0" type="matrix" in="shadowBlurOuter1" result="shadowMatrixOuter1"></feColorMatrix>
            <feMerge>
                <feMergeNode in="shadowMatrixOuter1"></feMergeNode>
                <feMergeNode in="SourceGraphic"></feMergeNode>
            </feMerge>
        </filter>
    </defs>
    <g id="Pages" stroke="none" stroke-width="1" fill="none" fill-rule="evenodd">
        <g id="Index" transform="translate(-1098.000000, -1226.000000)" fill-rule="nonzero">
            <g id="services" transform="translate(-5.000000, 1142.000000)">
                <g id="Delivery" transform="translate(138.000000, 72.000000)">
                    <g id="delivery">
                        <g id="Group-2" transform="translate(408.000000, 0.778255)">
                            <g id="Group" filter="url(#filter-1)" transform="translate(563.000000, 17.221745)" fill="#FFFFFF">
                                <path d="M87.133,33.767 C95.254,33.767 102.078,28.225 104.033,20.718 L109.5,21.532 C110.678009,21.7061898 111.774624,20.8936837 111.951,19.716 C112.126348,18.5377012 111.313298,17.4403528 110.135,17.265 L104.594,16.44 C104.596,16.394 104.598,16.349 104.598,16.302 C104.598,16.12 104.592,15.94 104.584,15.76 C104.584,15.76 104.133,9.242 103.51,6.523 C102.889,3.804 100.975,3.227 100.975,3.227 C91.205,1.015 81.203,0.789 78.6,0.789 C75.997,0.789 75.442,2.121 75.442,2.121 L72.292,7.117 L72.282,7.114 C72.206,7.236 72.136,7.359 72.063,7.482 L72.036,7.525 C70.4826044,10.1889884 69.6656818,13.2181937 69.669,16.302 C69.668,25.948 77.488,33.767 87.133,33.767 L87.133,33.767 Z M125.535,73.076 L125.535,73.074 L98.793,70.906 L89.547,49.794 C89.547,49.794 89.086,47.02 83.539,41.318 C77.99,35.616 66.74,37.928 66.74,37.928 C66.74,37.928 42.854,42.397 34.995,44.246 C27.135,46.096 26.827,54.109 26.827,54.109 L26.195,58.628 L11.017,55.687 C9.39197005,55.3787121 7.82236784,56.4385061 7.501,58.061 L0.09,96.303 C-0.220555165,97.9288283 0.840793567,99.5000713 2.465,99.819 L53.661,109.742 C53.776,109.764 53.891,109.766 54.007,109.775 L54.009,109.775 C53.281,109.879 52.718,109.74 52.718,109.74 L43.318,107.891 L40.236,124.996 L16.676,145.359 C14.5104679,147.067936 13.4700129,149.835985 13.9737095,152.548232 C14.477406,155.260478 16.4423281,157.470393 19.0770445,158.287866 C21.7117609,159.105339 24.5825055,158.395785 26.533,156.445 C26.533,156.445 54.258,134.395 56.108,132.854 C57.958,131.314 58.881,129.001 58.881,129.001 C58.881,129.001 63.422,115.053 64.66,112.127 C65.508,110.123 69.592,111.048 69.592,111.048 L92.477,119.679 L100.092,148.741 C100.174,149.371 100.334,149.975 100.565,150.545 L100.567,150.545 C102.02114,154.153422 106.013132,156.028541 109.718738,154.843755 C113.424344,153.65897 115.588012,149.815714 114.679,146.033 C113.837,141.068 110.075,118.987 109.118,114.207 C108.04,108.813 104.497,107.273 104.497,107.273 C104.497,107.273 83.229,95.715 81.843,94.944 C80.456,94.174 80.765,92.17 80.765,92.17 L84.695,77.839 L87.468,83.695 C87.468,83.695 89.087,86.969 91.552,87.086 L124.909,87.906 C126.879732,87.906 128.769733,87.1230614 130.163157,85.7294498 C131.556581,84.3358383 132.339265,82.4457318 132.339,80.475 C132.33662,76.6159582 129.380321,73.4011353 125.535,73.076 L125.535,73.076 Z M54.104,57.807 L52.315,63.687 L62.213,65.606 L41.999,61.689 L42.547,59.193 L54.104,57.807 Z M51.855,103.28 L6.551,94.499 L12.821,62.146 L25.363,64.577 L23.745,76.144 L23.105,80.55 C23.1,80.576 23.097,80.606 23.093,80.632 L23.075,80.759 L23.077,80.759 C22.8039166,82.8772686 23.4556018,85.0106125 24.8657716,86.6146878 C26.2759414,88.2187631 28.3082013,89.1384204 30.444,89.139 C32.5774166,89.1388457 34.6077732,88.2213894 36.0178061,86.6203667 C37.427839,85.019344 38.0814056,82.8893381 37.812,80.773 L40.713,67.55 L58.126,70.924 L51.855,103.28 L51.855,103.28 Z M19.05,12.008 L57.077,12.008 C58.177,12.008 59.077,11.112 59.077,10.018 C59.077,8.924 58.177,8.028 57.077,8.028 L19.05,8.028 C17.95,8.028 17.05,8.924 17.05,10.018 C17.05,11.112 17.95,12.008 19.05,12.008 Z M32.08,18.025 C30.98,18.025 30.08,18.921 30.08,20.015 C30.08,21.109 30.98,22.005 32.08,22.005 L55.039,22.005 C56.139,22.005 57.039,21.109 57.039,20.015 C57.0334966,18.9143377 56.139676,18.0249862 55.039,18.025 L32.08,18.025 L32.08,18.025 Z" id="Shape"></path>
                            </g>
                            <path d="M644.098,44.953745 C652.219,44.953745 659.043,39.411745 660.998,31.904745 L666.465,32.718745 C667.643009,32.8929348 668.739624,32.0804287 668.916,30.902745 C669.091348,29.7244462 668.278298,28.6270978 667.1,28.451745 L661.559,27.626745 C661.561,27.580745 661.563,27.535745 661.563,27.488745 C661.563,27.306745 661.557,27.126745 661.549,26.946745 C661.549,26.946745 661.098,20.428745 660.475,17.709745 C659.854,14.990745 657.94,14.413745 657.94,14.413745 C648.17,12.201745 638.168,11.975745 635.564,11.975745 C632.96,11.975745 632.406,13.307745 632.406,13.307745 L629.256,18.303745 L629.246,18.300745 C629.17,18.421745 629.1,18.545745 629.027,18.668745 L629,18.711745 C627.446604,21.3757334 626.629682,24.4049387 626.633,27.488745 C626.633,37.134745 634.453,44.953745 644.098,44.953745 Z M682.5,84.262745 L682.5,84.260745 L655.758,82.092745 L646.512,60.980745 C646.512,60.980745 646.051,58.206745 640.504,52.504745 C634.955,46.802745 623.705,49.114745 623.705,49.114745 C623.705,49.114745 599.819,53.583745 591.96,55.431745 C584.1,57.281745 583.792,65.294745 583.792,65.294745 L580.71,87.330745 L580.07,91.736745 C580.065,91.762745 580.062,91.792745 580.058,91.818745 L580.04,91.945745 L580.042,91.945745 C579.768917,94.0640136 580.420602,96.1973575 581.830772,97.8014328 C583.240941,99.4055081 585.273201,100.325165 587.409,100.325745 C589.542417,100.325591 591.572773,99.4081344 592.982806,97.8071117 C594.392839,96.206089 595.046406,94.0760831 594.777,91.959745 L599.511,70.378745 L611.068,68.992745 L609.279,74.872745 L619.177,76.791745 C620.80102,77.1116469 621.862012,78.6828084 621.552,80.308745 L614.14,118.551745 C613.862456,119.961057 612.628377,120.978293 611.192,120.981745 C611.12,120.981745 611.046,120.965745 610.972,120.960745 C610.244,121.064745 609.681,120.925745 609.681,120.925745 L600.281,119.076745 L597.199,136.181745 L573.639,156.544745 C571.473468,158.253681 570.433013,161.02173 570.936709,163.733977 C571.440406,166.446223 573.405328,168.656138 576.040044,169.473611 C578.674761,170.291084 581.545506,169.58153 583.496,167.630745 C583.496,167.630745 611.221,145.580745 613.071,144.039745 C614.921,142.499745 615.844,140.186745 615.844,140.186745 C615.844,140.186745 620.385,126.238745 621.623,123.312745 C622.471,121.308745 626.555,122.233745 626.555,122.233745 L649.44,130.864745 L657.055,159.926745 C657.137,160.556745 657.297,161.160745 657.528,161.730745 L657.53,161.730745 C658.98414,165.339167 662.976132,167.214286 666.681738,166.0295 C670.387344,164.844715 672.551012,161.001459 671.642,157.218745 C670.8,152.253745 667.038,130.172745 666.081,125.392745 C665.003,119.998745 661.46,118.458745 661.46,118.458745 C661.46,118.458745 640.193,106.903745 638.807,106.131745 C637.42,105.361745 637.729,103.357745 637.729,103.357745 L641.659,89.026745 L644.432,94.882745 C644.432,94.882745 646.051,98.156745 648.516,98.273745 L681.873,99.093745 C685.843461,99.0786676 689.100447,95.9445775 689.268155,91.9776312 C689.435862,88.010685 686.455021,84.6128826 682.5,84.262745 Z" id="Shape" fill="#3A3A3A"></path>
                            <path d="M610.971,120.960745 L610.973,120.960745 C611.046,120.966745 611.12,120.981745 611.193,120.981745 C612.6,120.981745 613.864,119.981745 614.141,118.551745 L621.553,80.308745 C621.863012,78.6828084 620.80202,77.1116469 619.178,76.791745 L598.964,72.874745 L597.678,78.736745 L615.091,82.110745 L608.82,114.464745 L563.516,105.685745 L569.786,73.332745 L582.328,75.763745 L583.16,69.813745 L567.982,66.871745 C566.35697,66.5634571 564.787368,67.6232511 564.466,69.245745 L557.055,107.489745 C556.744445,109.115573 557.805794,110.686816 559.43,111.005745 L610.626,120.928745 C610.74,120.950745 610.855,120.951745 610.971,120.960745 Z" id="Shape" fill="#F0C42E"></path>
                            <path d="M616.042,21.203745 C616.036497,22.3044073 615.142676,23.1937588 614.042,23.193745 L576.015,23.193745 C574.915,23.193745 574.015,22.297745 574.015,21.203745 C574.015,20.109745 574.915,19.213745 576.015,19.213745 L614.042,19.213745 C615.142,19.214745 616.042,20.109745 616.042,21.203745 L616.042,21.203745 Z M614.004,31.201745 C614.004,32.295745 613.104,33.191745 612.004,33.191745 L589.044,33.191745 C587.944,33.191745 587.044,32.295745 587.044,31.201745 C587.049503,30.1010827 587.943324,29.2117312 589.044,29.211745 L612.003,29.211745 C613.104,29.211745 614.004,30.107745 614.004,31.201745 L614.004,31.201745 Z" id="Shape" fill="#F0C52E"></path>
                        </g>
                    </g>
                </g>
            </g>
        </g>
    </g>
</svg>